<?xml version="1.0" encoding="UTF-8"?>
<svg xmlns="http://www.w3.org/2000/svg" width="74" height="22" viewBox="0 0 74 22" fill="none">
  <path d="M46.1907 15.611C46.1631 15.5399 46.087 15.4988 46.0124 15.5157L45.9893 15.5223C45.7685 15.5692 45.5984 15.556 45.4791 15.4768C45.3098 15.3646 45.2277 15.1109 45.2277 14.7017V11.0035C45.2277 9.55886 44.352 8.82627 42.6228 8.82627C41.075 8.82627 39.8621 9.5464 39.8621 10.466C39.8621 10.939 40.1552 11.2807 40.5879 11.3321C40.8706 11.3658 41.1406 11.2397 41.3361 11.0365C41.7165 10.642 41.668 10.1719 41.2063 9.66813C41.4793 9.38726 41.9627 9.22153 42.5139 9.22153C43.4121 9.22153 43.7955 9.74513 43.7955 10.9727V11.9077C43.5851 11.9715 43.3882 12.0317 43.0271 12.1153C42.2998 12.2832 41.3018 12.5069 40.5491 12.9153C39.9277 13.2505 39.6122 13.7792 39.6122 14.4868C39.6122 15.2576 40.1269 16.1574 41.577 16.1574C42.3894 16.1574 43.1167 15.779 43.8634 14.9664C43.9283 15.8105 44.2535 16.1273 45.0427 16.1273C45.4224 16.1273 45.726 16.04 46.087 15.8684C46.1848 15.8215 46.231 15.71 46.1907 15.611ZM43.7955 14.481C43.6194 14.7222 43.0436 15.4402 42.3259 15.4402C41.357 15.4402 41.1533 14.7714 41.1533 14.2104C41.1533 13.2879 41.8724 12.8611 43.7955 12.3939V14.481ZM62.3786 16.1889C60.3242 16.1889 58.7749 14.6064 58.7749 12.5076C58.7749 10.4528 60.3914 8.7808 62.3786 8.7808C64.3904 8.7808 65.9674 10.3905 65.9674 12.4467C65.9674 14.7582 64.1047 16.1889 62.3786 16.1889ZM62.301 9.17533C61.4133 9.17533 60.3936 9.5508 60.3936 12.4768C60.3936 14.709 61.0635 15.7936 62.4412 15.7936C63.7593 15.7936 64.3479 14.7714 64.3479 12.4768C64.3479 10.2555 63.678 9.17533 62.301 9.17533ZM30.6183 8.9128C30.6183 10.6156 30.1916 11.5528 28.0089 11.5528H26.8519V6.40921H28.0559C30.3139 6.40921 30.6183 7.67494 30.6183 8.9128ZM26.8519 14.7017V12.0258H27.9C29.4635 12.0258 30.6526 11.7009 31.4351 11.0593C32.2534 10.3883 32.4249 9.53833 32.4249 8.9436C32.4249 6.49721 30.0237 5.98387 28.0089 5.98387L28.0171 5.98315H23.9316C23.8391 5.98315 23.7637 6.05795 23.7637 6.14815V6.15915V6.15624C23.7637 6.23983 23.8152 6.31463 23.8957 6.34323C24.2598 6.47523 25.2482 6.29043 25.2482 7.3325V14.7002C25.2482 15.2363 25.0065 15.6147 23.9017 15.7174C23.8137 15.7254 23.748 15.7958 23.748 15.8809V15.9066C23.748 15.9975 23.8226 16.0708 23.9151 16.0708H28.2804C28.3729 16.0708 28.4483 15.9975 28.4483 15.9066V15.8838C28.4483 15.7988 28.3797 15.7269 28.2916 15.7196C27.0914 15.625 26.8505 15.2598 26.8505 14.7003V12.0309L26.8519 14.7017ZM35.7288 8.77713C33.8288 8.77713 32.2825 10.4682 32.2825 12.5472C32.2825 14.6518 33.7318 16.1794 35.7288 16.1794C37.4064 16.1794 38.2232 15.1938 38.6909 14.4531C38.7372 14.3798 38.717 14.283 38.6454 14.2324L38.623 14.217C38.5507 14.1664 38.45 14.1811 38.394 14.25C37.7771 15.0104 37.2371 15.4504 36.3046 15.4504C35.1253 15.4504 33.8654 14.6518 33.8654 12.4093V12.3932C33.8631 12.2942 33.8654 12.1585 33.8691 12.0317H38.6946C38.7081 12.0317 38.7185 12.0214 38.7193 12.0082L38.7223 11.9701C38.7909 11.0512 38.5261 10.2247 37.9771 9.64466C37.4408 9.07706 36.6634 8.77713 35.7288 8.77713ZM33.896 11.5594C34.0548 10.0253 34.6635 9.18413 35.6198 9.18413C36.098 9.18413 36.4531 9.31466 36.7037 9.58306C37.0483 9.95046 37.1945 10.6156 37.1371 11.5594H33.896ZM55.7299 11.6415H55.7284C54.4088 11.2771 53.8949 10.9089 53.8949 10.3274C53.8949 9.6652 54.4297 9.18413 55.1667 9.18413C56.0335 9.18413 56.405 9.59186 57.3203 11.0959L57.3322 11.1157C57.3367 11.1238 57.3449 11.1282 57.3449 11.1282H57.4792C57.5717 11.1282 57.647 11.0541 57.647 10.9632V8.80133C57.647 8.78813 57.6358 8.77713 57.6358 8.77713H57.4561C57.4061 8.77713 57.3583 8.79913 57.327 8.83727L57.0346 9.18633C56.6661 8.98686 56.0656 8.77713 55.4629 8.77713C53.9471 8.77713 52.8886 9.69746 52.8886 11.016C52.8886 12.2539 53.7233 12.7173 55.1645 13.1001C56.5646 13.4771 57.0615 13.8694 57.0615 14.5976C57.0615 15.4079 56.2633 15.7716 55.6964 15.7716C54.6416 15.7716 54.1963 15.3866 53.1855 13.6017L53.1736 13.5805C53.1691 13.5724 53.1609 13.5673 53.1609 13.5673H53.0251C52.9326 13.5673 52.8573 13.6421 52.8573 13.7323V16.1544C52.8573 16.1684 52.8684 16.1794 52.8826 16.1794H53.0542C53.0982 16.1794 53.1415 16.1618 53.1728 16.131L53.6345 15.677C54.1753 16.007 54.9839 16.1794 55.5091 16.1794C56.2976 16.1794 56.9458 15.9337 57.3837 15.4695C57.7746 15.0552 57.9894 14.4685 57.9894 13.8173C57.9894 12.6895 57.377 12.0999 55.7299 11.6415ZM47.7445 15.2018C47.7445 15.5751 47.6483 15.6976 47.0433 15.735C46.9553 15.7408 46.8867 15.8127 46.8867 15.8992C46.8867 15.9902 46.962 16.0635 47.0545 16.0635H50.0406C50.1316 16.0635 50.2054 15.9909 50.2054 15.9022C50.2054 15.8142 50.136 15.7416 50.0465 15.7379C49.3558 15.7049 49.1768 15.5949 49.1768 15.2018V10.8972C49.6683 10.0935 50.0212 9.67253 50.6179 9.54566C50.5888 9.6476 50.5702 9.7686 50.5702 9.8676C50.5702 10.3905 50.9417 10.7557 51.4735 10.7557C51.9957 10.7557 52.3612 10.3905 52.3612 9.8676C52.3612 9.37333 52.0472 8.79547 51.161 8.79547C50.4352 8.79547 49.7414 9.20466 49.1454 10.1837V9.07633C49.1454 8.9634 49.0507 8.87246 48.9358 8.8754L47.0545 8.92527C46.9628 8.92818 46.8919 9.00006 46.8919 9.08953V9.113C46.8919 9.1944 46.9516 9.26406 47.0314 9.27506C47.6587 9.36233 47.7453 9.65566 47.7445 9.96V15.2018ZM68.3977 8.871C68.4409 8.871 68.4827 8.88787 68.5133 8.91793C68.5469 8.94873 68.5648 8.9898 68.5655 9.03526L68.5715 10.2629C68.5715 10.2629 69.1846 8.8226 71.1733 8.8226H71.1912C72.431 8.8226 73.1419 9.59993 73.1419 10.9551V15.1952C73.1419 15.5685 73.2389 15.691 73.8431 15.7284C73.9311 15.7335 73.9998 15.8054 73.9998 15.8926C73.9998 15.9828 73.9244 16.0569 73.8327 16.0569H71.1495C71.057 16.0569 70.9816 15.9828 70.9816 15.8919C70.9816 15.8039 71.0495 15.732 71.1346 15.7247C71.6224 15.6836 71.7 15.5626 71.7 15.1952V11.3687C71.7 10.1045 71.3345 9.61313 70.3968 9.61313C69.7628 9.61313 69.2443 10.1565 68.9206 10.6127C68.9206 10.6127 68.755 10.8165 68.5759 11.2008L68.5953 15.1945C68.5953 15.5619 68.6714 15.6829 69.1451 15.724C69.2301 15.7313 69.2973 15.8039 69.2973 15.8882C69.2973 15.9828 69.2219 16.0569 69.1302 16.0569H66.4634C66.3717 16.0569 66.2963 15.9828 66.2963 15.8919C66.2963 15.8054 66.3657 15.7335 66.453 15.7276C67.0572 15.6902 67.1534 15.5685 67.1534 15.1952V9.96073C67.1534 9.65566 67.0669 9.36086 66.4366 9.27286C66.3567 9.26187 66.2963 9.19146 66.2963 9.11006V9.08587C66.2963 8.99567 66.3679 8.9238 66.4597 8.92087L68.3977 8.871Z" fill="white"></path>
  <path fill-rule="evenodd" clip-rule="evenodd" d="M18.5222 16.0129C21.8125 10.004 20.7115 4.06544 15.9829 1.41665C10.7583 -1.51081 3.94704 0.0819887 1.01098 6.35197C-1.0113 10.6691 -0.0930307 18.1718 4.61242 20.8617C9.31713 23.55 15.6309 21.2943 18.5222 16.0129ZM16.9265 9.62776C17.0869 8.4185 16.799 6.9445 15.8733 5.97284L15.8598 5.95964C14.0815 3.98478 11.6124 3.86085 10.0489 3.89898C8.32051 3.94225 7.07925 4.50324 6.06401 5.02391C5.17782 5.47784 4.37891 6.25884 4.05442 6.64677C3.84779 6.8939 3.49645 7.4043 3.68517 7.8619C3.84033 8.24177 4.42292 8.21683 4.64223 8.05477C4.75771 7.96914 4.87694 7.85996 5.00805 7.73991C5.1251 7.63273 5.25162 7.51689 5.3934 7.40137C6.72791 6.31604 7.91098 5.63257 10.6673 5.63257C13.4236 5.63257 14.9169 7.32217 14.9169 8.83063C14.9169 10.3391 14.1919 11.3636 12.8216 12.0324C12.1435 12.3631 11.4184 12.619 10.5054 12.6535C10.5718 11.1912 10.6061 9.80743 10.6061 9.80743C10.6093 9.63412 10.6169 9.46612 10.6241 9.30575C10.6608 8.49236 10.6887 7.87526 10.0899 7.75703C9.37454 7.6155 8.05644 7.75483 8.03183 8.55783C7.99975 8.4383 8.16759 15.138 8.19817 15.27L8.21011 15.424C8.22428 15.5941 8.28545 15.7437 8.39361 15.8633C8.50178 15.9813 8.67708 16.0547 8.83447 16.0723C8.85909 16.0745 8.88371 16.0767 8.90832 16.0767C9.05826 16.0767 9.26936 16.0503 9.48196 15.9916C9.7505 15.9161 10.0205 15.7877 10.1764 15.5875C10.2555 15.4863 10.3204 15.3881 10.354 15.2069C10.3771 15.0837 10.4226 14.3057 10.4345 14.0798C11.8839 14.0666 13.3572 13.7997 14.4783 13.1279C15.8919 12.2824 16.7423 11.0064 16.9265 9.62776ZM9.42676 16.8481C9.59012 16.8797 9.75124 16.9552 9.89521 17.0652C10.1563 17.2647 10.313 17.5763 10.3159 17.8953C10.3182 18.1703 10.2011 18.416 9.98549 18.5898C9.79975 18.7365 9.56104 18.8157 9.29548 18.8157H9.29472C9.17313 18.8157 9.05154 18.7981 8.93294 18.7658C8.72705 18.7079 8.56145 18.6118 8.45329 18.4871C8.35632 18.3764 8.29142 18.2275 8.26307 18.0552C8.21981 17.7868 8.28769 17.5089 8.4518 17.2771C8.64873 16.9977 8.95084 16.8313 9.25817 16.8313C9.31412 16.8313 9.37156 16.8371 9.42676 16.8481Z" fill="white"></path>
</svg>
