<?xml version="1.0" encoding="UTF-8"?>
<svg xmlns="http://www.w3.org/2000/svg" width="80" height="24" viewBox="0 0 80 24" fill="none">
  <path d="M18.3868 11.0732H22.5019L22.8607 9.67906H18.7208L18.3868 11.0732Z" fill="white"></path>
  <path fill-rule="evenodd" clip-rule="evenodd" d="M18.3408 1.01382C19.2304 0.359267 20.3163 0.00333364 21.4338 0H28.4275L23.5976 20.2261C23.3217 21.3005 22.6833 22.2552 21.7834 22.9387C20.8836 23.6223 19.7737 23.9958 18.6297 24H11.6442L16.3886 4.10505C16.4217 3.9448 16.4576 3.78456 16.5045 3.62697C16.8066 2.5858 17.4513 1.66836 18.3408 1.01382ZM23.9179 7.93682C24.1015 8.00616 24.2686 8.11095 24.409 8.24483C24.5448 8.3735 24.6517 8.52792 24.7229 8.69844C24.7942 8.86894 24.8282 9.05185 24.823 9.2357C24.8226 9.3633 24.8078 9.49047 24.7789 9.61496L24.409 11.1614C24.2785 11.6845 23.9811 12.1545 23.559 12.5048C23.1648 12.796 22.6733 12.9358 22.179 12.8974H17.9452L17.5919 14.3797C17.4708 14.8739 17.1787 15.313 16.764 15.6243C16.3698 15.9531 15.8684 16.1366 15.3481 16.1424H15.257L17.2331 7.83619L23.3409 7.84153C23.5379 7.83507 23.7342 7.86748 23.9179 7.93682Z" fill="white"></path>
  <path fill-rule="evenodd" clip-rule="evenodd" d="M4.98886 4.7011C5.86931 4.06161 6.93626 3.70806 8.03698 3.69108H15.0252L12.1272 15.8139L11.8512 16.9998C11.5157 17.9505 10.8849 18.7776 10.045 19.368C9.20518 19.9585 8.1973 20.2833 7.15932 20.2982H0L2.97523 7.83619L3.09115 7.39017L3.13531 7.25129C3.4596 6.23325 4.10841 5.34059 4.98886 4.7011ZM6.62113 7.83619H12.8697L12.8476 7.92432C12.7225 8.41609 12.431 8.85324 12.0196 9.16626C11.629 9.48883 11.1338 9.66844 10.6203 9.67372H6.28717L5.95322 11.0652H10.9598L10.9405 11.1534C10.8211 11.6468 10.5285 12.0848 10.1125 12.3926C9.72067 12.7254 9.22053 12.9145 8.69937 12.9268H5.51163L5.16111 14.3904C5.04126 14.8851 4.74883 15.3246 4.33312 15.635C3.93973 15.9632 3.43938 16.1466 2.92003 16.1531H2.82895L4.438 9.4013C4.58531 8.98361 4.85708 8.61745 5.21907 8.34899C5.60887 8.02269 6.10575 7.84096 6.62113 7.83619Z" fill="white"></path>
  <path fill-rule="evenodd" clip-rule="evenodd" d="M33.0753 3.69108C32.0153 3.70701 30.9857 4.0361 30.1244 4.63423C29.2631 5.23236 28.6113 6.07094 28.2564 7.03762C28.215 7.13644 28.0825 7.54775 28.0825 7.54775L25.0383 20.2982H32.032C34.4332 20.2982 36.4673 18.621 37.0413 16.3615L40.0773 3.68307L33.0753 3.69108ZM36.8647 8.25016C36.7257 8.1152 36.5592 8.00965 36.3758 7.94023C36.1924 7.87081 35.9961 7.83901 35.7994 7.84688H29.3466V7.90563C29.3196 8.02598 29.3039 8.14844 29.2997 8.27154C29.2912 8.45819 29.3223 8.64454 29.3911 8.81909C29.46 8.99365 29.565 9.15271 29.6999 9.28644C29.8383 9.41989 30.0035 9.5245 30.1853 9.59386C30.3671 9.66321 30.5616 9.69585 30.7569 9.68974H32.1065L30.5692 16.1531H30.6603C31.18 16.1482 31.6809 15.9646 32.0734 15.635C32.4891 15.3246 32.7815 14.8851 32.9014 14.3904L34.0302 9.68974H37.2124V9.63098C37.2396 9.5062 37.2543 9.37922 37.2566 9.25172C37.2662 9.06765 37.2364 8.88363 37.1689 8.71127C37.1015 8.53889 36.9979 8.3819 36.8647 8.25016Z" fill="white"></path>
  <path fill-rule="evenodd" clip-rule="evenodd" d="M39.0368 18.0574H39.6605C40.0607 18.0574 40.2788 18.1936 40.2788 18.5328C40.282 18.5903 40.2726 18.6479 40.2512 18.7016C40.2299 18.7554 40.197 18.8042 40.1548 18.8448C40.1125 18.8854 40.0619 18.9169 40.0062 18.9372C39.9506 18.9576 39.8911 18.9663 39.8316 18.9628L40.2815 19.6706H39.9614L39.5308 18.9708H39.3404V19.6706H39.0368V18.0574ZM39.3486 18.7518H39.6246C39.8068 18.7518 39.9669 18.7251 39.9669 18.5115C39.9669 18.2978 39.7875 18.2871 39.6274 18.2871H39.3514L39.3486 18.7518Z" fill="white"></path>
  <path fill-rule="evenodd" clip-rule="evenodd" d="M38.1205 18.8747C38.1188 18.5908 38.2045 18.3128 38.3665 18.0761C38.5286 17.8394 38.7597 17.6547 39.0305 17.5454C39.3013 17.4361 39.5996 17.4073 39.8874 17.4625C40.1752 17.5177 40.4395 17.6545 40.6468 17.8554C40.8541 18.0564 40.9949 18.3124 41.0514 18.591C41.1079 18.8697 41.0775 19.1582 40.9641 19.4201C40.8507 19.682 40.6594 19.9053 40.4145 20.0616C40.1696 20.218 39.8822 20.3004 39.5888 20.2982C39.1969 20.2975 38.8213 20.1464 38.5445 19.878C38.2677 19.6096 38.1122 19.2459 38.1122 18.8667L38.1205 18.8747ZM40.7093 18.8667C40.6932 18.6563 40.614 18.4551 40.4815 18.2876C40.349 18.1201 40.1689 17.9937 39.9633 17.9238C39.7577 17.8539 39.5354 17.8435 39.3238 17.8939C39.1121 17.9444 38.9203 18.0535 38.7718 18.2079C38.6232 18.3622 38.5244 18.5551 38.4875 18.763C38.4506 18.9709 38.4771 19.1847 38.5638 19.3782C38.6505 19.5717 38.7936 19.7365 38.9757 19.8525C39.1577 19.9685 39.3708 20.0306 39.5888 20.0312C39.7416 20.0296 39.8925 19.9981 40.0324 19.9387C40.1723 19.8792 40.2984 19.793 40.403 19.6853C40.5077 19.5775 40.5888 19.4504 40.6414 19.3116C40.694 19.1727 40.7171 19.0251 40.7093 18.8774V18.8667Z" fill="white"></path>
  <path d="M44.3607 9.7111V16.1211L47.8438 16.1131V15.2744H45.3847V13.258H47.623V12.4353H45.3847V10.5524H47.8355V9.7111H44.3607Z" fill="white"></path>
  <path fill-rule="evenodd" clip-rule="evenodd" d="M52.4308 15.8834C51.9061 16.1315 51.3251 16.2472 50.7417 16.2199C50.4158 16.238 50.0896 16.189 49.7847 16.0762C49.4797 15.9635 49.203 15.7894 48.9726 15.5655C48.5296 15.0724 48.3037 14.4311 48.3433 13.7788C48.3064 13.1365 48.5146 12.5034 48.9284 12C49.1403 11.7691 49.4031 11.5874 49.6974 11.4681C49.9917 11.3488 50.3099 11.2951 50.6286 11.3109C50.8982 11.3072 51.1667 11.346 51.4234 11.4258V9.17961H52.4281L52.4308 15.8834ZM51.4262 12.1603C51.2013 12.0797 50.962 12.0434 50.7224 12.0534C50.5211 12.0475 50.3214 12.0901 50.1412 12.1772C49.9611 12.2644 49.8061 12.3935 49.6902 12.5529C49.4407 12.9195 49.3189 13.3537 49.3424 13.7921C49.3156 14.2287 49.441 14.6613 49.6985 15.0207C49.8204 15.1681 49.9768 15.2853 50.1549 15.3624C50.333 15.4395 50.5276 15.4744 50.7224 15.4641C50.964 15.4767 51.2052 15.4337 51.4262 15.3385V12.1603Z" fill="white"></path>
  <path d="M55.2901 16.2199C55.9331 16.2472 56.5741 16.1321 57.1641 15.8834V11.3563H56.1678V15.2905C55.8874 15.3912 55.589 15.4366 55.2901 15.424C54.6278 15.424 54.2966 15.1231 54.2966 14.5213V11.3563H53.3002V14.5026C53.3002 15.6475 53.9635 16.2199 55.2901 16.2199Z" fill="white"></path>
  <path d="M61.2765 15.8914C60.8991 16.122 60.4584 16.2365 60.0124 16.2199C59.7353 16.2281 59.4595 16.1795 59.2031 16.0773C58.9468 15.9751 58.7156 15.8216 58.5248 15.627C58.2889 15.3699 58.1077 15.0704 57.9916 14.7454C57.8756 14.4204 57.827 14.0765 57.8486 13.7334C57.8266 13.3918 57.8751 13.0494 57.9912 12.7262C58.1073 12.4029 58.2887 12.1052 58.5248 11.8504C58.7156 11.6558 58.9468 11.5023 59.2031 11.4001C59.4595 11.298 59.7353 11.2494 60.0124 11.2575C60.4575 11.2414 60.8971 11.3559 61.2737 11.586L60.948 12.2858C60.7124 12.1284 60.4311 12.0479 60.1449 12.0561C59.9767 12.0518 59.8098 12.0856 59.6574 12.1546C59.5051 12.2237 59.3715 12.3262 59.2672 12.454C58.9896 12.8223 58.8538 13.273 58.8836 13.728C58.8536 14.1843 58.9925 14.6359 59.2755 15.002C59.3783 15.1299 59.5103 15.233 59.6611 15.3035C59.8119 15.3739 59.9775 15.4096 60.1449 15.408C60.4311 15.4161 60.7124 15.3357 60.948 15.1783L61.2765 15.8914Z" fill="white"></path>
  <path fill-rule="evenodd" clip-rule="evenodd" d="M63.7577 16.2199C64.3686 16.2481 64.9775 16.1326 65.5323 15.8834L65.5268 12.8894C65.5268 11.8104 64.8957 11.2709 63.6335 11.2709C63.0431 11.2649 62.4582 11.3796 61.9168 11.6074L62.1735 12.2697C62.5988 12.0753 63.0638 11.9759 63.5341 11.9786C64.2296 11.9786 64.5774 12.2457 64.5774 12.7799V13.087C63.884 13.0915 63.1964 13.2088 62.5433 13.4342C62.2702 13.529 62.035 13.7047 61.871 13.9363C61.707 14.1679 61.6226 14.4436 61.6297 14.7242C61.6297 15.7213 62.3391 16.2199 63.7577 16.2199ZM63.2029 13.9203C63.6517 13.7953 64.1159 13.7297 64.5829 13.7253V15.3839C64.3111 15.4804 64.0219 15.5222 63.7328 15.5068C62.9573 15.5068 62.5709 15.2397 62.5709 14.7055C62.5693 14.5249 62.6309 14.349 62.7456 14.2064C62.8604 14.0639 63.0215 13.9631 63.2029 13.9203Z" fill="white"></path>
  <path d="M68.7063 16.0784C68.5091 16.1549 68.2975 16.1904 68.0853 16.1825C67.1837 16.1825 66.7329 15.7169 66.7329 14.7857V12.0801H66.065V11.3563H66.7329V10.2506L67.7099 9.95682V11.3563H68.7063V12.0801H67.7099V14.7323C67.7099 15.1356 67.9307 15.3359 68.3696 15.3359C68.4852 15.3381 68.6001 15.3163 68.7063 15.2718V16.0784Z" fill="white"></path>
  <path d="M69.8309 10.4881C69.9871 10.4881 70.1375 10.4309 70.2518 10.3281C70.3077 10.2793 70.3521 10.2195 70.3821 10.1527C70.4121 10.0859 70.427 10.0136 70.4257 9.9408C70.427 9.86758 70.4122 9.79493 70.3822 9.72769C70.3522 9.66046 70.3078 9.60017 70.2518 9.55086C70.1366 9.4497 69.9865 9.39367 69.8309 9.39367C69.6753 9.39367 69.5253 9.4497 69.41 9.55086C69.3541 9.60017 69.3097 9.66046 69.2797 9.72769C69.2497 9.79493 69.2349 9.86758 69.2362 9.9408C69.2349 10.0136 69.2498 10.0859 69.2798 10.1527C69.3098 10.2195 69.3542 10.2793 69.41 10.3281C69.5244 10.4309 69.6748 10.4881 69.8309 10.4881Z" fill="white"></path>
  <path d="M69.3273 11.3563V16.1211H70.3319V11.3563H69.3273Z" fill="white"></path>
  <path fill-rule="evenodd" clip-rule="evenodd" d="M74.8196 15.4908C74.6213 15.7161 74.3749 15.897 74.0974 16.0211C73.8198 16.1452 73.5177 16.2095 73.2119 16.2095C72.9061 16.2095 72.604 16.1452 72.3264 16.0211C72.0488 15.897 71.8024 15.7161 71.6042 15.4908C71.2135 14.9814 71.0183 14.3562 71.0522 13.7227C71.019 13.0892 71.2141 12.4643 71.6042 11.9546C71.8045 11.7325 72.0516 11.5544 72.3289 11.4324C72.6062 11.3104 72.9073 11.2473 73.2119 11.2473C73.5165 11.2473 73.8176 11.3104 74.0949 11.4324C74.3722 11.5544 74.6193 11.7325 74.8196 11.9546C75.2096 12.4643 75.4048 13.0892 75.3716 13.7227C75.4054 14.3562 75.2103 14.9814 74.8196 15.4908ZM74.0882 12.4861C73.9947 12.3455 73.8662 12.2299 73.7146 12.1498C73.5629 12.0697 73.3929 12.0278 73.2202 12.0278C73.0474 12.0278 72.8774 12.0697 72.7258 12.1498C72.5741 12.2299 72.4457 12.3455 72.3522 12.4861C72.1369 12.8646 72.0356 13.2939 72.0596 13.7254C72.0342 14.1534 72.1326 14.5798 72.3439 14.9566C72.4345 15.102 72.5624 15.2223 72.7152 15.3059C72.868 15.3894 73.0405 15.4332 73.216 15.4332C73.3915 15.4332 73.564 15.3894 73.7168 15.3059C73.8696 15.2223 73.9976 15.102 74.0882 14.9566C74.2965 14.579 74.3921 14.1526 74.3642 13.7254C74.3932 13.2955 74.2976 12.8662 74.0882 12.4861Z" fill="white"></path>
  <path d="M78.9954 12.9375V16.1211H80V12.86C79.9982 11.7917 79.3155 11.2575 77.9521 11.2575C77.3071 11.2449 76.6657 11.3547 76.0643 11.5807V16.1211H77.0579V12.1763C77.3476 12.0738 77.6548 12.0258 77.9632 12.0347C78.6531 12.0347 78.9954 12.3365 78.9954 12.9375Z" fill="white"></path>
</svg>
